<svg height="1294" width="720" xmlns="http://www.w3.org/2000/svg">
<rect height="1294" fill="#555" width="720"></rect>
<text fill="#7f7" font-family="Courier New" font-size="12" xml:space="preserve">
<tspan x="10" y="26"></tspan>
<tspan x="10" y="42">&gt; npmtest-electron@0.0.1 test /home/travis/build/npmtest/node-npmtest-electron</tspan>
<tspan x="10" y="58">&gt; (set -e; export PORT=$(utility2 shServerPortRandom); utility2 test test.js)</tspan>
<tspan x="10" y="74"></tspan>
<tspan x="10" y="90"></tspan>
<tspan x="10" y="106">[MODE_BUILD=npmTest] - 2017-04-11T08:42:26Z - npm-testing /home/travis/build/npmtest/node-npmtes\</tspan>
<tspan x="10" y="122">t-electron</tspan>
<tspan x="10" y="138"></tspan>
<tspan x="10" y="154">merging file:///home/travis/build/npmtest/node-npmtest-electron/tmp/build/test-report.json to te\</tspan>
<tspan x="10" y="170">st-report</tspan>
<tspan x="10" y="186">&gt; server listening on http-port 45809</tspan>
<tspan x="10" y="202">[node test-case 1 of 6 passed] - testCase_buildLib_default</tspan>
<tspan x="10" y="218">[node test-case 2 of 6 passed] - testCase_buildReadme_default</tspan>
<tspan x="10" y="234">[node test-case 3 of 6 passed] - testCase_buildTest_default</tspan>
<tspan x="10" y="250"></tspan>
<tspan x="10" y="266">browserTest - created electron entry-page /home/travis/build/npmtest/node-npmtest-electron/tmp/e\</tspan>
<tspan x="10" y="282">lectron.15b5c2dab1c0.252e68720f773.html</tspan>
<tspan x="10" y="298"></tspan>
<tspan x="10" y="314">[node test-case 4 of 6 passed] - testCase_buildApidoc_default</tspan>
<tspan x="10" y="330">Xlib:  extension "RANDR" missing on display ":99.0".</tspan>
<tspan x="10" y="346">merging file:///home/travis/build/npmtest/node-npmtest-electron/tmp/build/test-report.json to te\</tspan>
<tspan x="10" y="362">st-report</tspan>
<tspan x="10" y="378">Xlib:  extension "RANDR" missing on display ":99.0".</tspan>
<tspan x="10" y="394">[5162:0411/084229.294712:WARNING:audio_manager.cc(317)] Multiple instances of AudioManager detec\</tspan>
<tspan x="10" y="410">ted</tspan>
<tspan x="10" y="426">[5162:0411/084229.294803:WARNING:audio_manager.cc(278)] Multiple instances of AudioManager detec\</tspan>
<tspan x="10" y="442">ted</tspan>
<tspan x="10" y="458">[5182:0411/084229.429226:ERROR:sandbox_linux.cc(343)] InitializeSandbox() called with multiple t\</tspan>
<tspan x="10" y="474">hreads in process gpu-process. </tspan>
<tspan x="10" y="490">[5162:0411/084229.451330:ERROR:browser_gpu_channel_host_factory.cc(125)] Failed to create channe\</tspan>
<tspan x="10" y="506">l.</tspan>
<tspan x="10" y="522">[5162:0411/084229.451476:ERROR:browser_gpu_channel_host_factory.cc(125)] Failed to create channe\</tspan>
<tspan x="10" y="538">l.</tspan>
<tspan x="10" y="554">[5162:0411/084229.451531:ERROR:browser_gpu_channel_host_factory.cc(125)] Failed to create channe\</tspan>
<tspan x="10" y="570">l.</tspan>
<tspan x="10" y="586">[5162:0411/084229.451713:ERROR:browser_gpu_channel_host_factory.cc(125)] Failed to create channe\</tspan>
<tspan x="10" y="602">l.</tspan>
<tspan x="10" y="618">[5162:0411/084229.452924:ERROR:browser_gpu_channel_host_factory.cc(125)] Failed to create channe\</tspan>
<tspan x="10" y="634">l.</tspan>
<tspan x="10" y="650">&gt; </tspan>
<tspan x="10" y="666">browserTest - opened url http://127.0.0.1:45809?modeTest=1</tspan>
<tspan x="10" y="682"></tspan>
<tspan x="10" y="698">server listening on http-port 56646</tspan>
<tspan x="10" y="714">[node test-case 5 of 6 passed] - testCase_buildApp_default</tspan>
<tspan x="10" y="730"></tspan>
<tspan x="10" y="746">browserTest - created screenCapture file:///home/travis/build/npmtest/node-npmtest-electron/tmp/\</tspan>
<tspan x="10" y="762">build/screenCapture.npmTest.browser.%2F.png</tspan>
<tspan x="10" y="778"></tspan>
<tspan x="10" y="794">browserTest - created screenCapture file:///home/travis/build/npmtest/node-npmtest-electron/tmp/\</tspan>
<tspan x="10" y="810">build/screenCapture.npmTest.browser.%2F.html</tspan>
<tspan x="10" y="826"></tspan>
<tspan x="10" y="842">browserTest - exit-code 0 - http://127.0.0.1:45809?modeTest=1</tspan>
<tspan x="10" y="858"></tspan>
<tspan x="10" y="874"></tspan>
<tspan x="10" y="890">browserTest - merging test-report from /home/travis/build/npmtest/node-npmtest-electron/tmp/test\</tspan>
<tspan x="10" y="906">-report.npmTest.browser.%2F.json</tspan>
<tspan x="10" y="922"></tspan>
<tspan x="10" y="938">[node test-case 6 of 6 passed] - testCase_webpage_default</tspan>
<tspan x="10" y="954">merging file:///home/travis/build/npmtest/node-npmtest-electron/tmp/build/test-report.json to te\</tspan>
<tspan x="10" y="970">st-report</tspan>
<tspan x="10" y="986"></tspan>
<tspan x="10" y="1002">-------------------------------------------------------</tspan>
<tspan x="10" y="1018">| test-report - buildCustomOrg - browser - / - Mozilla/5.0 (X11; Linux x86_64) AppleWebKit/537.3\</tspan>
<tspan x="10" y="1034">6 (KHTML, like Gecko) Chrome/56.0.2924.87 Electron/1.6.2 Safari/537.36 - 2017-04-11T08:41:36.873\</tspan>
<tspan x="10" y="1050">Z</tspan>
<tspan x="10" y="1066">|   68008 ms            0 failed        6 passed      |</tspan>
<tspan x="10" y="1082">-------------------------------------------------------</tspan>
<tspan x="10" y="1098">| test-report - buildCustomOrg - node - linux v6.10.2 - 2017-04-11T08:41:34.728Z</tspan>
<tspan x="10" y="1114">|   16561 ms            0 failed        6 passed      |</tspan>
<tspan x="10" y="1130">-------------------------------------------------------</tspan>
<tspan x="10" y="1146"></tspan>
<tspan x="10" y="1162">created test-report file:///home/travis/build/npmtest/node-npmtest-electron/tmp/build/test-repor\</tspan>
<tspan x="10" y="1178">t.html</tspan>
<tspan x="10" y="1194"></tspan>
<tspan x="10" y="1210"></tspan>
<tspan x="10" y="1226">npmTest - 0 failed tests</tspan>
<tspan x="10" y="1242"></tspan>
<tspan x="10" y="1258"></tspan>
<tspan x="10" y="1274">[MODE_BUILD=npmTest] - 2017-04-11T08:42:46Z - EXIT_CODE - 0</tspan>
</text>
</svg>
